<?xml version="1.0" standalone="no"?>
<!DOCTYPE svg PUBLIC "-//W3C//DTD SVG 20010904//EN"
 "http://www.w3.org/TR/2001/REC-SVG-20010904/DTD/svg10.dtd">
<svg version="1.0" xmlns="http://www.w3.org/2000/svg"
 width="1024.000000pt" height="243.000000pt" viewBox="0 0 1024.000000 243.000000"
 preserveAspectRatio="xMidYMid meet">

<g transform="translate(0.000000,243.000000) scale(0.100000,-0.100000)"
fill="#000000" stroke="none">
<path d="M0 1215 l0 -1215 4413 1 4412 0 -42 22 c-24 11 -43 25 -43 29 0 5 31
71 70 148 l70 139 53 -24 c80 -37 146 -47 206 -31 61 16 84 34 111 91 l20 42
-141 289 c-137 280 -202 414 -364 749 -42 88 -79 163 -82 168 -2 4 100 6 227
5 l231 -3 165 -360 c91 -198 169 -363 172 -367 6 -6 135 281 294 654 l33 78
218 0 217 0 0 400 0 400 -5120 0 -5120 0 0 -1215z m3800 610 l0 -305 63 43
c94 64 187 90 327 91 132 1 195 -12 298 -61 92 -43 170 -119 210 -205 55 -114
62 -187 62 -609 l0 -379 -220 0 -220 0 0 348 c0 387 -5 422 -62 488 -43 48
-78 64 -157 71 -130 11 -230 -40 -277 -142 -24 -49 -24 -54 -24 -407 l0 -358
-220 0 -220 0 0 865 0 865 220 0 220 0 0 -305z m-1135 -175 c118 -14 235 -55
324 -115 70 -46 155 -136 186 -196 l16 -30 -103 -47 c-243 -113 -251 -117
-256 -104 -13 39 -74 100 -127 127 -53 27 -67 30 -154 30 -108 -1 -159 -17
-224 -74 -90 -80 -121 -244 -66 -361 54 -116 147 -172 290 -173 70 0 94 4 140
25 56 26 124 85 134 119 4 11 12 19 19 19 17 0 340 -148 343 -157 4 -10 -42
-79 -82 -124 -51 -58 -118 -107 -195 -143 -105 -49 -177 -66 -310 -73 -473
-23 -818 269 -798 674 12 234 135 416 353 523 154 76 317 102 510 80z m3230
-20 c117 -30 208 -82 297 -171 88 -87 138 -177 163 -294 15 -71 20 -202 9
-242 l-6 -23 -485 0 -484 0 6 -22 c10 -33 50 -83 90 -113 86 -66 244 -92 365
-60 70 18 150 57 176 86 16 18 18 18 48 -8 17 -14 71 -64 121 -111 l90 -84
-55 -51 c-61 -56 -179 -117 -280 -144 -99 -27 -366 -24 -475 6 -248 67 -422
217 -496 431 -19 54 -22 86 -22 185 0 103 3 130 26 193 86 244 290 403 569
442 89 12 254 3 343 -20z m2683 -176 l2 -191 -103 0 c-176 0 -261 -43 -319
-160 l-33 -68 -3 -317 -3 -318 -220 0 -219 0 0 615 0 615 205 0 205 0 0 -107
0 -106 28 39 c57 78 134 134 224 163 45 15 151 29 198 27 l35 -1 3 -191z
m-1108 -3 l0 -190 -108 0 c-169 0 -263 -45 -317 -151 -38 -74 -45 -146 -45
-437 l0 -273 -215 0 -215 0 0 615 0 615 205 0 205 0 1 -102 c0 -100 1 -102 17
-78 36 53 107 113 167 141 76 36 126 46 228 48 l77 1 0 -189z"/>
<path d="M5529 1318 c-68 -36 -124 -100 -135 -157 l-6 -31 279 0 c154 0 282 3
285 6 11 10 -34 102 -65 135 -54 54 -120 79 -214 79 -72 0 -88 -4 -144 -32z"/>
<path d="M10150 1388 c-46 -101 -100 -219 -121 -263 -20 -44 -105 -231 -189
-415 -188 -413 -216 -469 -273 -547 -40 -54 -103 -112 -163 -150 -15 -9 74
-12 409 -12 l427 -1 0 785 c0 432 -2 785 -3 785 -2 0 -41 -82 -87 -182z m-155
-1031 c9 -20 33 -43 57 -57 38 -21 40 -25 24 -34 -42 -25 -78 -60 -90 -90
l-13 -31 -15 35 c-17 38 -38 60 -82 82 l-28 15 31 13 c35 14 81 63 81 86 0 25
19 15 35 -19z"/>
</g>
</svg>
