<?xml version="1.0" standalone="no"?>
<!DOCTYPE svg PUBLIC "-//W3C//DTD SVG 20010904//EN"
 "http://www.w3.org/TR/2001/REC-SVG-20010904/DTD/svg10.dtd">
<svg version="1.0" xmlns="http://www.w3.org/2000/svg"
 width="1024.000000pt" height="243.000000pt" viewBox="0 0 1024.000000 243.000000"
 preserveAspectRatio="xMidYMid meet">

<g transform="translate(0.000000,243.000000) scale(0.100000,-0.100000)"
fill="#000000" stroke="none">
<path d="M1 1588 c1 -693 3 -834 13 -793 38 152 159 279 281 292 36 4 69 -4
156 -41 13 -6 18 5 28 51 43 195 151 439 266 598 35 50 99 128 142 175 43 46
69 80 58 75 -250 -108 -461 -77 -626 90 -66 67 -118 141 -151 215 -42 94 -44
85 30 115 37 15 99 35 137 45 l70 19 -202 0 -203 1 1 -842z"/>
<path d="M725 2416 c93 -29 171 -91 235 -186 45 -67 93 -170 79 -170 -6 0
-108 30 -227 66 -246 75 -385 115 -389 110 -2 -1 124 -60 279 -131 179 -81
286 -124 294 -119 6 5 69 53 140 107 71 53 133 97 139 97 6 0 25 -26 43 -59
l32 -59 -62 -41 c-123 -81 -187 -157 -218 -259 -48 -155 -5 -390 121 -659 l38
-83 53 28 c113 59 223 28 318 -90 72 -89 95 -161 95 -293 0 -103 -2 -114 -32
-178 -44 -93 -119 -169 -212 -215 -73 -36 -78 -37 -185 -37 -103 0 -116 3
-176 31 -36 17 -92 55 -124 85 l-58 54 22 50 c66 150 67 333 2 459 -14 29 -13
31 16 57 36 32 101 52 149 47 18 -2 33 -3 33 -2 0 0 -20 46 -44 101 -53 121
-91 234 -111 331 -19 95 -20 264 0 328 8 27 15 50 15 52 0 9 -102 -109 -152
-177 -103 -137 -245 -450 -272 -601 l-6 -36 38 4 c130 13 240 -99 272 -276 37
-208 -97 -430 -298 -492 -239 -74 -490 66 -557 309 -12 40 -13 6 -14 -261 l-1
-308 4408 0 c4373 1 4407 1 4370 20 -20 11 -39 24 -43 30 -3 5 27 72 67 149
l72 139 46 -23 c143 -72 275 -47 324 63 l18 39 -65 134 c-36 74 -169 345 -296
602 -127 258 -231 471 -231 473 0 2 103 4 229 4 l228 0 53 -117 c29 -65 80
-174 112 -241 32 -68 58 -125 58 -126 0 -2 27 -61 61 -132 l60 -128 161 372
161 372 223 0 224 0 0 400 0 400 -4777 -1 c-3868 0 -4770 -3 -4738 -13z m3065
-596 l0 -310 60 44 c84 62 161 87 296 93 301 15 497 -99 576 -336 21 -63 22
-87 26 -488 l4 -423 -221 0 -221 0 0 353 c0 384 -3 413 -55 481 -51 68 -180
94 -294 60 -65 -19 -131 -81 -149 -140 -8 -29 -12 -145 -12 -398 l0 -356 -220
0 -220 0 0 865 0 865 215 0 215 0 0 -310z m-1005 -195 c114 -31 204 -83 285
-164 68 -68 122 -144 110 -154 -3 -2 -81 -39 -175 -82 -158 -72 -170 -76 -180
-59 -5 11 -33 42 -62 71 -40 40 -64 56 -109 69 -69 20 -188 15 -247 -10 -54
-24 -115 -82 -145 -140 -22 -44 -26 -64 -26 -142 -1 -82 2 -96 29 -149 35 -69
103 -126 174 -147 72 -20 186 -15 248 12 49 21 115 80 140 125 10 18 22 14
187 -60 l175 -78 -22 -41 c-12 -23 -54 -73 -93 -113 -79 -79 -183 -137 -304
-169 -98 -27 -347 -24 -455 5 -206 55 -373 180 -456 342 -56 110 -76 303 -44
425 64 247 257 415 540 470 93 18 347 12 430 -11z m3130 -10 c217 -72 360
-215 421 -420 18 -62 26 -244 12 -277 -7 -17 -40 -18 -488 -18 -328 0 -480 -3
-480 -10 0 -48 102 -146 181 -175 41 -15 79 -20 159 -20 121 0 175 16 261 75
l54 37 118 -110 117 -110 -22 -24 c-45 -48 -164 -119 -244 -146 -108 -35 -244
-51 -369 -42 -380 27 -641 240 -686 560 -47 334 192 640 549 705 26 5 112 7
192 6 125 -3 156 -8 225 -31z m1545 -163 l0 -188 -102 0 c-174 0 -266 -45
-326 -158 l-27 -51 -3 -327 -3 -328 -225 0 -224 0 2 613 3 612 205 0 205 0 5
-99 5 -99 29 42 c75 108 211 168 384 170 l72 1 0 -188z m1110 0 l0 -188 -102
0 c-130 0 -199 -19 -260 -73 -26 -24 -55 -62 -69 -93 -23 -52 -24 -60 -27
-375 l-3 -323 -220 0 -219 0 0 615 0 615 205 0 205 0 0 -107 0 -106 31 46 c74
112 211 174 387 176 l72 1 0 -188z"/>
<path d="M5590 1347 c-104 -23 -184 -95 -214 -192 -6 -20 -2 -20 279 -17 182
2 285 6 285 13 0 5 -11 31 -25 58 -56 112 -188 168 -325 138z"/>
<path d="M10210 1558 c-19 -44 -301 -670 -507 -1123 -105 -232 -170 -324 -274
-394 l-61 -41 436 0 436 0 0 805 c0 443 -2 805 -4 805 -2 0 -14 -24 -26 -52z
m-230 -1207 c6 -13 8 -21 2 -17 -12 7 -23 -19 -16 -37 2 -7 16 -14 30 -15 22
-2 24 0 14 12 -6 8 -18 12 -26 9 -8 -3 -14 0 -14 7 0 20 42 6 59 -20 9 -14 11
-21 4 -16 -7 4 -13 3 -13 -3 0 -5 6 -11 13 -14 6 -3 2 -4 -10 -4 -12 1 -19 5
-16 11 3 5 1 6 -6 2 -7 -5 -9 -12 -3 -19 6 -8 0 -24 -15 -46 -12 -19 -23 -28
-23 -20 0 8 -14 28 -30 46 -17 18 -30 36 -30 42 0 5 -10 7 -22 4 -21 -4 -21
-4 2 9 23 13 26 12 36 -13 7 -14 19 -29 28 -32 10 -4 14 -3 11 2 -3 6 3 15 12
21 17 11 17 11 1 6 -10 -3 -25 -3 -33 0 -17 7 -21 54 -4 54 5 0 7 -6 3 -12 -4
-8 -3 -9 2 -5 5 5 9 14 10 20 2 17 16 58 19 55 1 -2 8 -14 15 -27z"/>
<path d="M9960 220 c-13 -8 -12 -10 3 -10 9 0 17 5 17 10 0 12 -1 12 -20 0z"/>
<path d="M1373 958 l-22 -32 41 -23 c49 -28 94 -77 110 -120 14 -37 11 -36 61
-22 33 9 37 13 31 32 -23 76 -79 149 -135 177 -51 27 -60 25 -86 -12z"/>
<path d="M630 903 c-14 -9 -27 -17 -28 -19 -2 -1 15 -25 37 -54 38 -48 61
-102 61 -142 0 -15 9 -18 46 -18 l46 0 -7 48 c-12 88 -79 202 -117 202 -8 0
-25 -8 -38 -17z"/>
</g>
</svg>
